<?xml version="1.0" encoding="UTF-8"?>
<svg id="_레이어_2" data-name="레이어 2" xmlns="http://www.w3.org/2000/svg" viewBox="0 0 1700.33 1326.02">
  <defs>
    <style>
      .cls-1 {
        fill: none;
        stroke: #000;
        stroke-miterlimit: 10;
      }
    </style>
  </defs>
  <g id="_레이어_2-2" data-name="레이어 2">
    <path class="cls-1" d="M1700.33,46.5c-6.55.02-15.57.6-26,3-4.08.94-12.34,2.89-21,7-16.54,7.85-26.29,19.68-33,28-13.45,16.67-10.13,20.5-24,38-8.52,10.75-14.75,18.61-26,25-17.43,9.9-34.02,8.96-51,8-11.3-.64-21.55-1.45-25-8-3.56-6.76,0-19.93,0-20,18.33,1,36.67,2,55,3-34.69-12.07-47.28-16.43-49-17-.03,0-3-1-3-1,26.18-2.47,38.58-4.01,45-5,.87-.13,13-2,13-2-19.33-1.67-38.67-3.33-58-5,17.67-7,35.33-14,53-21-18.67,2-37.33,4-56,6,15.33-10.33,30.67-20.67,46-31-18,6.67-36,13.33-54,20,12-13.33,24-26.67,36-40-15,10.33-30,20.67-45,31,7-15.67,14-31.33,21-47-.72.96-1.75,2.34-3,4-4.1,5.43-7.82,10.21-14,18-5.31,6.69-21.34,26.66-16,20,2.57-18.62,3.86-27.92,5-35,1.16-7.19,3-18,3-18v.02s-6.01,11.6-20.99,47.98c-2.33-17.33-4.67-34.67-7-52-2.67,17.33-5.33,34.67-8,52-6.67-15.67-13.33-31.33-20-47,2.67,16.67,5.33,33.33,8,50-11.67-13.33-23.33-26.67-35-40,7.33,15.33,14.67,30.67,22,46-14.67-10.33-29.33-20.67-44-31,11.67,13.33,23.33,26.67,35,40-18-6.33-36-12.67-54-19,.83.55,2.09,1.39,3,2,23.32,15.53,43.98,28.99,44,29-19.67-2-39.33-4-59-6,20.67,7.67,41.33,15.33,62,23-.08-1.28-.13-2.99,0-5,.3-4.65,1.39-8.22,2-10,2.02-5.85,4.99-9.73,6-11,3.85-4.81,7.93-7.35,9-8,3.68-2.22,6.81-3.1,10-4,4.8-1.35,8.56-1.7,12-2,4.08-.36,8.35-.73,14,0,6.13.79,10.59,2.45,12,3,1.12.44,5.72,2.27,11,6,2.58,1.82,5.23,3.69,8,7s4.22,6.35,5,8c.46.98,1.98,4.32,3,9,.4,1.84,1.06,4.96,1,9-.03,2.38-.3,4.17-2,12-1.09,5.01-1.91,8.62-2,9-3.26,14.46,16.12,27.09,13,44-1.54,8.37-6.44,8.22-8,19-1.54,10.64,2.84,13.52,0,20-3.45,7.89-14.13,13.19-23,14-6.76.62-11.74-1.44-15,2-2.17,2.29-.97,4.25-3,8-2.96,5.46-8.9,7.56-13,9-3.11,1.1-10.92,3.85-19,1-5.19-1.83-7.04-4.75-11-4-2.89.55-3.73,2.45-7,5-4.98,3.88-10.07,4.96-15,6-3.75.79-10.79,2.28-19,0-6-1.67-10.74-4.82-11-5-5.2-3.51-6.83-6.65-11-7-2.61-.22-3.8.86-7,2-7.9,2.82-15.27,1.49-18,1-9.55-1.72-15.79-7.06-18-9-3.75-3.3-9.38-8.23-11-16-1.47-7.04,1.35-11.59-2-15-1.99-2.02-3.38-.83-8-3-6.52-3.06-9.97-8.37-11-10-2.72-4.3-3.49-8.23-4-11-.64-3.47-2.58-13.91,3-25,5.91-11.76,16.34-16.43,20-18,.96-.41,19.06-8,27-2,.9.68,3.28,2.75,5,2,1.29-.57,1.36-2.36,2-4,1.35-3.47,4.76-5.05,9-7,3.2-1.48,10.67-4.92,19-3,3.51.81,6.02,2.3,9,1,2.12-.93,3.08-2.66,4-4,4.08-5.92,10.48-8.55,14-10,8.22-3.38,16.11-1.64,19-1,5.91,1.31,16.35,5.25,21,11,.5.62,1.78,2.3,4,3,2.88.9,5.52-.41,7-1,7.01-2.78,16.73-.73,22,3,5.33,3.77,3.79,7.6,9,10,4.67,2.15,7.08-.38,13,1,6.53,1.52,10.6,6.22,13,9,1.8,2.08,8.65,10.26,8,22-.14,2.57-.77,13.85-8,18-4.33,2.49-8.07.73-11,4-2.57,2.87-1.8,6.58-2,10-.64,10.85-11.12,18.79-18,24-2.77,2.1-11.98,8.67-33,12-16.73,2.65-22.55.34-46,0-14.91-.22-31.4-.46-51,3-22.75,4.01-39.29,11.17-48,15,0,0-27.12,11.98-51,31-70.89,56.46-175.92,357.8-264,356-14.52-.3-11.76-8.49-47-18-12.5-3.37-57.49-14.4-115-3-26.81,5.31-18.47,7.99-102,39-27.5,10.21-28.36,9.9-87,31-46.66,16.79-70,25.18-74,27-47.1,21.37-65.65,40.27-127,68-10.44,4.72-24.83,10.92-44,11-25.13.11-43.65-10.37-54-16-34.26-18.64-107.44-58.46-181-70-22.99-3.61-46.3-4.49-47-11-.7-6.49,21.54-14.45,36-18,26.57-6.53,50.31-3.94,70,0,49.15,9.84,90.8,31.71,142,59,19.5,10.39,20.71,11.74,27,13,41.17,8.25,66.21-34.08,121-67,18.28-10.99,92.32-52.44,169-36,20.59,4.41,46.06,19.28,97,49,65.02,37.94,97.53,56.91,96,67-4.24,27.95-139.08,25.69-427,54-59.3,5.83-138.8,14.31-139,27-.18,11.74,67.31,34.83,130,39,10.2.68,42.3,2.32,43,9,.21,2.02-2.61,3.07-15,13-11.46,9.19-10.82,9.71-15,12-4.55,2.5-11.04,4-24,7-10.38,2.4-14.6,2.92-19,7-3.69,3.42-5.31,7.31-6,9-1.69,4.17-4.19,10.34-1,15,3.08,4.5,11.07,7.01,16,3,3.14-2.56,4.46-7.29,3-11-2.41-6.12-11.76-7.88-16-5-3.55,2.41-3.7,8.94-4,22-.06,2.67-.02,5,0,6,.14,7.35.77,13.66,1,15,1.25,7.22,11.34,10.32,18.19,12.5,35.27,11.27,65.6,12.42,82.81,16.5,3.82.9,6.55,1.28,12,2,9.45,1.25,12.4.87,15,0,1.21-.4,4.9-1.67,8-5,3.79-4.06,4.62-8.94,5-11,1.53-8.24,5.57-23.48,11-32,.59-.93,10.19-15.51,25-16,14.9-.5,26.39,13.56,31,24,7.9,17.9,3.21,42.58-13,53-2.7,1.73-13.13,7.84-23,4-15.9-6.19-22.61-35.19-11-53,6.53-10.02,20.68-19.29,32-15,13.58,5.15,16.48,27.32,12,42-5.59,18.32-25.23,33.38-43,30-10.52-2-23-10.96-22-19,2.03-16.36,60.17-31.32,109-31,7.47.05,44.78.65,47-9,.36-1.56-.32-2.85-.29-8.64.03-5.99.8-10.9,1.29-13.36,1.36-6.78,3.23-16.07,11-22,5.91-4.52,15.42-7.22,23-4,15,6.38,19.71,34.8,7,49-5.66,6.33-16.29,11.51-24,8-13.48-6.13-16.4-38.06-2-48,6.7-4.62,18-5.07,25,1,10.17,8.83,4.5,25.58,4,27-4.42,12.47-16.5,21.67-29,22-5.21.14-14.2-1.16-15-5-1.49-7.14,28.31-19.32,30-20,14.96-6.04,19-4.61,23-10,6.6-8.9,4.1-24.29-3-34-2.87-3.93-6.54-6.99-12-10-17.88-9.85-32.48-6.73-49-9-20.01-2.75-18.5-10.07-47-21-13.85-5.32-40.13-13.53-73-13-25.65.42-42.52,5.95-64,13-3.85,1.26-12.31,4.15-12,6,.32,1.88,9.5,1.23,22,2,20.89,1.29,35.05,2.16,38,9,3.39,7.87-8.46,22.71-22,29-3.62,1.68-9.16,3.59-30,3-28.04-.79-42.05-1.19-44-7-2.78-8.32,17.97-24.45,38-31,2.37-.78,36.22-11.44,48,4,3.26,4.27,3.72,8.93,4,12,2.01,21.91-21.82,29.86-23,54-.17,3.4,0,7.73-3,11-2.92,3.19-8.32,3.17-19,3-13.4-.22-15.28-2.12-16-3-2.79-3.43-2.69-9.42,0-13,2.68-3.56,7.79-3.71,18-4,8.56-.25,12.84-.37,15,2,4.92,5.4-1.84,18.71-3,21-12.4,24.41-41.34,32.48-54,36-.54.15-7.13,1.94-16,2-7.07.05-13.36.01-17-4-3.25-3.58-2.1-7.79-3-10-3.09-7.56-39.29-13.73-145,27-46.93,18.08-104.96,40.88-174,89-31.61,22.03-56.42,43.03-74,59"/>
    <path class="cls-1" d="M521.97,838.68c7.49.21,18.58.53,32,1,98.43,3.43,152.63,8.57,190,13,1.85.22,46.92,5.83,101,25,10.92,3.87,28.98,9.37,39,26,0,0,8.02,13.31,7,31-2.63,45.58-87.91,84.99-99,90-132.9,60.01-264.42,113.55-287,123-63.75,26.69-153.48,76.5-248,178"/>
  </g>
</svg>