<svg width="159" height="46" viewBox="0 0 159 46" fill="none" xmlns="http://www.w3.org/2000/svg">
    <g filter="url(#filter0_d_6_32)">
        <mask id="path-1-outside-1_6_32" maskUnits="userSpaceOnUse" x="4" y="0" width="151" height="38" fill="black">
            <rect fill="white" x="4" width="151" height="38"/>
            <path d="M21.5909 1.09091H25.8182V26.0455C25.8182 28.2727 25.4091 30.1648 24.5909 31.7216C23.7727 33.2784 22.6193 34.4602 21.1307 35.267C19.642 36.0739 17.8864 36.4773 15.8636 36.4773C13.9545 36.4773 12.2557 36.1307 10.767 35.4375C9.27841 34.733 8.10795 33.733 7.25568 32.4375C6.40341 31.142 5.97727 29.6023 5.97727 27.8182H10.1364C10.1364 28.8068 10.3807 29.6705 10.8693 30.4091C11.3693 31.1364 12.0511 31.7045 12.9148 32.1136C13.7784 32.5227 14.7614 32.7273 15.8636 32.7273C17.0795 32.7273 18.1136 32.4716 18.9659 31.9602C19.8182 31.4489 20.4659 30.6989 20.9091 29.7102C21.3636 28.7102 21.5909 27.4886 21.5909 26.0455V1.09091ZM35.7216 36H31.2898L44.108 1.09091H48.4716L61.2898 36H56.858L46.4261 6.61364H46.1534L35.7216 36ZM37.358 22.3636H55.2216V26.1136H37.358V22.3636ZM66.7273 36V1.09091H78.5227C81.2614 1.09091 83.5 1.58523 85.2386 2.57386C86.9886 3.55114 88.2841 4.875 89.125 6.54545C89.9659 8.21591 90.3864 10.0795 90.3864 12.1364C90.3864 14.1932 89.9659 16.0625 89.125 17.7443C88.2955 19.4261 87.0114 20.767 85.2727 21.767C83.5341 22.7557 81.3068 23.25 78.5909 23.25H70.1364V19.5H78.4545C80.3295 19.5 81.8352 19.1761 82.9716 18.5284C84.108 17.8807 84.9318 17.0057 85.4432 15.9034C85.9659 14.7898 86.2273 13.5341 86.2273 12.1364C86.2273 10.7386 85.9659 9.48864 85.4432 8.38636C84.9318 7.28409 84.1023 6.42045 82.9545 5.79545C81.8068 5.15909 80.2841 4.84091 78.3864 4.84091H70.9545V36H66.7273ZM95.0653 36H90.6335L103.452 1.09091H107.815L120.634 36H116.202L105.77 6.61364H105.497L95.0653 36ZM96.7017 22.3636H114.565V26.1136H96.7017V22.3636ZM153.753 1.09091V36H149.662L130.639 8.59091H130.298V36H126.071V1.09091H130.162L149.253 28.5682H149.594V1.09091H153.753Z"/>
        </mask>
        <path d="M21.5909 1.09091H25.8182V26.0455C25.8182 28.2727 25.4091 30.1648 24.5909 31.7216C23.7727 33.2784 22.6193 34.4602 21.1307 35.267C19.642 36.0739 17.8864 36.4773 15.8636 36.4773C13.9545 36.4773 12.2557 36.1307 10.767 35.4375C9.27841 34.733 8.10795 33.733 7.25568 32.4375C6.40341 31.142 5.97727 29.6023 5.97727 27.8182H10.1364C10.1364 28.8068 10.3807 29.6705 10.8693 30.4091C11.3693 31.1364 12.0511 31.7045 12.9148 32.1136C13.7784 32.5227 14.7614 32.7273 15.8636 32.7273C17.0795 32.7273 18.1136 32.4716 18.9659 31.9602C19.8182 31.4489 20.4659 30.6989 20.9091 29.7102C21.3636 28.7102 21.5909 27.4886 21.5909 26.0455V1.09091ZM35.7216 36H31.2898L44.108 1.09091H48.4716L61.2898 36H56.858L46.4261 6.61364H46.1534L35.7216 36ZM37.358 22.3636H55.2216V26.1136H37.358V22.3636ZM66.7273 36V1.09091H78.5227C81.2614 1.09091 83.5 1.58523 85.2386 2.57386C86.9886 3.55114 88.2841 4.875 89.125 6.54545C89.9659 8.21591 90.3864 10.0795 90.3864 12.1364C90.3864 14.1932 89.9659 16.0625 89.125 17.7443C88.2955 19.4261 87.0114 20.767 85.2727 21.767C83.5341 22.7557 81.3068 23.25 78.5909 23.25H70.1364V19.5H78.4545C80.3295 19.5 81.8352 19.1761 82.9716 18.5284C84.108 17.8807 84.9318 17.0057 85.4432 15.9034C85.9659 14.7898 86.2273 13.5341 86.2273 12.1364C86.2273 10.7386 85.9659 9.48864 85.4432 8.38636C84.9318 7.28409 84.1023 6.42045 82.9545 5.79545C81.8068 5.15909 80.2841 4.84091 78.3864 4.84091H70.9545V36H66.7273ZM95.0653 36H90.6335L103.452 1.09091H107.815L120.634 36H116.202L105.77 6.61364H105.497L95.0653 36ZM96.7017 22.3636H114.565V26.1136H96.7017V22.3636ZM153.753 1.09091V36H149.662L130.639 8.59091H130.298V36H126.071V1.09091H130.162L149.253 28.5682H149.594V1.09091H153.753Z" fill="black"/>
        <path d="M21.5909 1.09091V0.0909081H20.5909V1.09091H21.5909ZM25.8182 1.09091H26.8182V0.0909081H25.8182V1.09091ZM24.5909 31.7216L25.4761 32.1868L24.5909 31.7216ZM21.1307 35.267L21.6072 36.1462L21.1307 35.267ZM10.767 35.4375L10.3392 36.3414L10.3449 36.344L10.767 35.4375ZM7.25568 32.4375L6.42026 32.9871L7.25568 32.4375ZM5.97727 27.8182V26.8182H4.97727V27.8182H5.97727ZM10.1364 27.8182H11.1364V26.8182H10.1364V27.8182ZM10.8693 30.4091L10.0353 30.9608L10.0402 30.9683L10.0453 30.9756L10.8693 30.4091ZM12.9148 32.1136L13.3429 31.2099L12.9148 32.1136ZM18.9659 31.9602L18.4514 31.1027L18.9659 31.9602ZM20.9091 29.7102L19.9987 29.2964L19.9966 29.3012L20.9091 29.7102ZM21.5909 2.09091H25.8182V0.0909081H21.5909V2.09091ZM24.8182 1.09091V26.0455H26.8182V1.09091H24.8182ZM24.8182 26.0455C24.8182 28.1528 24.4311 29.8762 23.7057 31.2564L25.4761 32.1868C26.3871 30.4533 26.8182 28.3927 26.8182 26.0455H24.8182ZM23.7057 31.2564C22.976 32.6449 21.9616 33.6793 20.6542 34.3879L21.6072 36.1462C23.2771 35.2412 24.5695 33.9119 25.4761 32.1868L23.7057 31.2564ZM20.6542 34.3879C19.3378 35.1013 17.7522 35.4773 15.8636 35.4773V37.4773C18.0205 37.4773 19.9463 37.0464 21.6072 36.1462L20.6542 34.3879ZM15.8636 35.4773C14.0768 35.4773 12.5258 35.1533 11.1892 34.531L10.3449 36.344C11.9856 37.108 13.8323 37.4773 15.8636 37.4773V35.4773ZM11.1948 34.5336C9.86127 33.9025 8.83623 33.0205 8.0911 31.8879L6.42026 32.9871C7.37968 34.4454 8.69555 35.5634 10.3393 36.3414L11.1948 34.5336ZM8.0911 31.8879C7.36166 30.7791 6.97727 29.4371 6.97727 27.8182H4.97727C4.97727 29.7674 5.44516 31.505 6.42026 32.9871L8.0911 31.8879ZM5.97727 28.8182H10.1364V26.8182H5.97727V28.8182ZM9.13636 27.8182C9.13636 28.9794 9.42606 30.0399 10.0353 30.9608L11.7033 29.8574C11.3353 29.301 11.1364 28.6343 11.1364 27.8182H9.13636ZM10.0453 30.9756C10.6534 31.8602 11.4773 32.5392 12.4867 33.0174L13.3429 31.2099C12.625 30.8699 12.0852 30.4125 11.6934 29.8426L10.0453 30.9756ZM12.4867 33.0174C13.5032 33.4989 14.636 33.7273 15.8636 33.7273V31.7273C14.8868 31.7273 14.0536 31.5466 13.3429 31.2099L12.4867 33.0174ZM15.8636 33.7273C17.2204 33.7273 18.4414 33.4411 19.4804 32.8177L18.4514 31.1027C17.7859 31.502 16.9387 31.7273 15.8636 31.7273V33.7273ZM19.4804 32.8177C20.524 32.1916 21.3026 31.277 21.8216 30.1193L19.9966 29.3012C19.6292 30.1208 19.1124 30.7061 18.4514 31.1027L19.4804 32.8177ZM21.8195 30.124C22.3485 28.9601 22.5909 27.5886 22.5909 26.0455H20.5909C20.5909 27.3887 20.3787 28.4604 19.9987 29.2964L21.8195 30.124ZM22.5909 26.0455V1.09091H20.5909V26.0455H22.5909ZM35.7216 36V37H36.4277L36.664 36.3345L35.7216 36ZM31.2898 36L30.3511 35.6553L29.8573 37H31.2898V36ZM44.108 1.09091V0.0909081H43.4099L43.1692 0.746222L44.108 1.09091ZM48.4716 1.09091L49.4103 0.746222L49.1697 0.0909081H48.4716V1.09091ZM61.2898 36V37H62.7222L62.2285 35.6553L61.2898 36ZM56.858 36L55.9156 36.3345L56.1518 37H56.858V36ZM46.4261 6.61364L47.3685 6.2791L47.1323 5.61364H46.4261V6.61364ZM46.1534 6.61364V5.61364H45.4473L45.211 6.2791L46.1534 6.61364ZM37.358 22.3636V21.3636H36.358V22.3636H37.358ZM55.2216 22.3636H56.2216V21.3636H55.2216V22.3636ZM55.2216 26.1136V27.1136H56.2216V26.1136H55.2216ZM37.358 26.1136H36.358V27.1136H37.358V26.1136ZM35.7216 35H31.2898V37H35.7216V35ZM32.2285 36.3447L45.0467 1.43559L43.1692 0.746222L30.3511 35.6553L32.2285 36.3447ZM44.108 2.09091H48.4716V0.0909081H44.108V2.09091ZM47.5329 1.43559L60.3511 36.3447L62.2285 35.6553L49.4103 0.746222L47.5329 1.43559ZM61.2898 35H56.858V37H61.2898V35ZM57.8003 35.6655L47.3685 6.2791L45.4838 6.94817L55.9156 36.3345L57.8003 35.6655ZM46.4261 5.61364H46.1534V7.61364H46.4261V5.61364ZM45.211 6.2791L34.7792 35.6655L36.664 36.3345L47.0958 6.94817L45.211 6.2791ZM37.358 23.3636H55.2216V21.3636H37.358V23.3636ZM54.2216 22.3636V26.1136H56.2216V22.3636H54.2216ZM55.2216 25.1136H37.358V27.1136H55.2216V25.1136ZM38.358 26.1136V22.3636H36.358V26.1136H38.358ZM66.7273 36H65.7273V37H66.7273V36ZM66.7273 1.09091V0.0909081H65.7273V1.09091H66.7273ZM85.2386 2.57386L84.7443 3.44318L84.7511 3.44695L85.2386 2.57386ZM89.125 6.54545L88.2318 6.9951L89.125 6.54545ZM89.125 17.7443L88.2306 17.2971L88.2282 17.302L89.125 17.7443ZM85.2727 21.767L85.767 22.6363L85.7713 22.6339L85.2727 21.767ZM70.1364 23.25H69.1364V24.25H70.1364V23.25ZM70.1364 19.5V18.5H69.1364V19.5H70.1364ZM82.9716 18.5284L82.4764 17.6596L82.9716 18.5284ZM85.4432 15.9034L84.5379 15.4785L84.536 15.4826L85.4432 15.9034ZM85.4432 8.38636L84.536 8.80721L84.5396 8.81485L85.4432 8.38636ZM82.9545 5.79545L82.4696 6.67004L82.4763 6.67368L82.9545 5.79545ZM70.9545 4.84091V3.84091H69.9545V4.84091H70.9545ZM70.9545 36V37H71.9545V36H70.9545ZM67.7273 36V1.09091H65.7273V36H67.7273ZM66.7273 2.09091H78.5227V0.0909081H66.7273V2.09091ZM78.5227 2.09091C81.1493 2.09091 83.2019 2.56607 84.7443 3.44315L85.7329 1.70457C83.7981 0.604383 81.3735 0.0909081 78.5227 0.0909081V2.09091ZM84.7511 3.44695C86.3397 4.33413 87.4873 5.51616 88.2318 6.9951L90.0182 6.09581C89.0809 4.23384 87.6375 2.76814 85.7262 1.70078L84.7511 3.44695ZM88.2318 6.9951C88.9957 8.51258 89.3864 10.2199 89.3864 12.1364H91.3864C91.3864 9.93922 90.9361 7.91924 90.0182 6.09581L88.2318 6.9951ZM89.3864 12.1364C89.3864 14.0528 88.9957 15.7668 88.2306 17.2971L90.0194 18.1915C90.9361 16.3582 91.3864 14.3336 91.3864 12.1364H89.3864ZM88.2282 17.302C87.4925 18.7934 86.3534 19.9919 84.7742 20.9002L85.7713 22.6339C87.6693 21.5422 89.0984 20.0589 90.0218 18.1867L88.2282 17.302ZM84.7784 20.8978C83.2349 21.7755 81.193 22.25 78.5909 22.25V24.25C81.4206 24.25 83.8333 23.7359 85.767 22.6363L84.7784 20.8978ZM78.5909 22.25H70.1364V24.25H78.5909V22.25ZM71.1364 23.25V19.5H69.1364V23.25H71.1364ZM70.1364 20.5H78.4545V18.5H70.1364V20.5ZM78.4545 20.5C80.4324 20.5 82.1281 20.1602 83.4668 19.3972L82.4764 17.6596C81.5424 18.192 80.2267 18.5 78.4545 18.5V20.5ZM83.4668 19.3972C84.7691 18.6549 85.7447 17.6297 86.3503 16.3242L84.536 15.4826C84.1189 16.3817 83.4468 17.1065 82.4764 17.6596L83.4668 19.3972ZM86.3484 16.3283C86.9415 15.0647 87.2273 13.6609 87.2273 12.1364H85.2273C85.2273 13.4073 84.9903 14.5148 84.5379 15.4785L86.3484 16.3283ZM87.2273 12.1364C87.2273 10.612 86.9416 9.2123 86.3467 7.95788L84.5396 8.81485C84.9902 9.76497 85.2273 10.8652 85.2273 12.1364H87.2273ZM86.3503 7.96552C85.7418 6.65373 84.7537 5.63655 83.4328 4.91723L82.4763 6.67368C83.4508 7.20435 84.1219 7.91445 84.536 8.8072L86.3503 7.96552ZM83.4395 4.92089C82.0918 4.17366 80.3829 3.84091 78.3864 3.84091V5.84091C80.1852 5.84091 81.5219 6.14453 82.4696 6.67002L83.4395 4.92089ZM78.3864 3.84091H70.9545V5.84091H78.3864V3.84091ZM69.9545 4.84091V36H71.9545V4.84091H69.9545ZM70.9545 35H66.7273V37H70.9545V35ZM95.0653 36V37H95.7715L96.0077 36.3345L95.0653 36ZM90.6335 36L89.6948 35.6553L89.201 37H90.6335V36ZM103.452 1.09091V0.0909081H102.754L102.513 0.746222L103.452 1.09091ZM107.815 1.09091L108.754 0.746222L108.513 0.0909081H107.815V1.09091ZM120.634 36V37H122.066L121.572 35.6553L120.634 36ZM116.202 36L115.259 36.3345L115.496 37H116.202V36ZM105.77 6.61364L106.712 6.2791L106.476 5.61364H105.77V6.61364ZM105.497 6.61364V5.61364H104.791L104.555 6.2791L105.497 6.61364ZM96.7017 22.3636V21.3636H95.7017V22.3636H96.7017ZM114.565 22.3636H115.565V21.3636H114.565V22.3636ZM114.565 26.1136V27.1136H115.565V26.1136H114.565ZM96.7017 26.1136H95.7017V27.1136H96.7017V26.1136ZM95.0653 35H90.6335V37H95.0653V35ZM91.5722 36.3447L104.39 1.43559L102.513 0.746222L89.6948 35.6553L91.5722 36.3447ZM103.452 2.09091H107.815V0.0909081H103.452V2.09091ZM106.877 1.43559L119.695 36.3447L121.572 35.6553L108.754 0.746222L106.877 1.43559ZM120.634 35H116.202V37H120.634V35ZM117.144 35.6655L106.712 6.2791L104.827 6.94817L115.259 36.3345L117.144 35.6655ZM105.77 5.61364H105.497V7.61364H105.77V5.61364ZM104.555 6.2791L94.123 35.6655L96.0077 36.3345L106.44 6.94817L104.555 6.2791ZM96.7017 23.3636H114.565V21.3636H96.7017V23.3636ZM113.565 22.3636V26.1136H115.565V22.3636H113.565ZM114.565 25.1136H96.7017V27.1136H114.565V25.1136ZM97.7017 26.1136V22.3636H95.7017V26.1136H97.7017ZM153.753 1.09091H154.753V0.0909081H153.753V1.09091ZM153.753 36V37H154.753V36H153.753ZM149.662 36L148.84 36.5702L149.139 37H149.662V36ZM130.639 8.59091L131.461 8.02074L131.162 7.59091H130.639V8.59091ZM130.298 8.59091V7.59091H129.298V8.59091H130.298ZM130.298 36V37H131.298V36H130.298ZM126.071 36H125.071V37H126.071V36ZM126.071 1.09091V0.0909081H125.071V1.09091H126.071ZM130.162 1.09091L130.983 0.520321L130.685 0.0909081H130.162V1.09091ZM149.253 28.5682L148.432 29.1388L148.73 29.5682H149.253V28.5682ZM149.594 28.5682V29.5682H150.594V28.5682H149.594ZM149.594 1.09091V0.0909081H148.594V1.09091H149.594ZM152.753 1.09091V36H154.753V1.09091H152.753ZM153.753 35H149.662V37H153.753V35ZM150.483 35.4298L131.461 8.02074L129.818 9.16107L148.84 36.5702L150.483 35.4298ZM130.639 7.59091H130.298V9.59091H130.639V7.59091ZM129.298 8.59091V36H131.298V8.59091H129.298ZM130.298 35H126.071V37H130.298V35ZM127.071 36V1.09091H125.071V36H127.071ZM126.071 2.09091H130.162V0.0909081H126.071V2.09091ZM129.341 1.6615L148.432 29.1388L150.074 27.9976L130.983 0.520321L129.341 1.6615ZM149.253 29.5682H149.594V27.5682H149.253V29.5682ZM150.594 28.5682V1.09091H148.594V28.5682H150.594ZM149.594 2.09091H153.753V0.0909081H149.594V2.09091Z" fill="black" mask="url(#path-1-outside-1_6_32)"/>
    </g>
</svg>
