<?xml version="1.0" encoding="UTF-8"?>
<svg id="_레이어_1" data-name=" 레이어 1" xmlns="http://www.w3.org/2000/svg" viewBox="0 0 1633.99 1223.35">
  <defs>
    <style>
      .cls-1 {
        fill: none;
        stroke: #000;
        stroke-miterlimit: 10;
      }
    </style>
  </defs>
  <g id="one_line" data-name="one line">
    <path class="cls-1" d="M459.98,1216.99c3.52-12.8-4.48-25.8-13.48-35.8-6-6-13-8-21-8s-20,8-24-2c-3-10-5-20-13-27-9-8-21-10-33-11-10,0-22,7-30,0-6-7-6-17-12-24-9-9-21-13-34-11-15,3-29,8-37,21-2,3-6,3-8,1-1-1-1-2-1-3,1-9,1-18-4-26-7-11-19-21-34-18-2,1-5,0-7,0-1-1-4-2-5-3-8-12-14-28-30-30-14-1-27,3-40,10-12,7-24,16-29,30-1,4,1,7,5,6,10-3,19,1,27,5,13,7,19,20,22,35,2,9,11,0,17-2,15-5,31,1,37,16,1,4,2,9,6,10,6,2,12-3,18-3,7,1,15,4,17,11,0,4,1,10,5,11,6,3,12-2,18,1,14,5,23,21,25,36,0,6-6,11-11,13-29,8-67,4-84-23-2-10-5-19-11-28-2-3-5-8-9-10-3-1-6-4-9-5-15-6-37-5-41,15-1,5-5,8-10,8-4,0-8-3-12-5-10-8-18-22-32-18-7,7-10,17-19,21s-19,5-29,4c-7-1-10-6-14-11,0-13,8-25,19-31,6-3,12-3,17,3,1,1,5,0,4-2-6-21,10-37,25-49,4-4,6-10,4-15-5-12-15-23-12-38,3-11,12-17,20-24,2-1,5-3,7-5,19-10,37-19,56-29,25-14,48-30,72-45,12-3,22-10,34-15,16-6,32-13,49-18,25-7,49-15,75-21,4-2,8-3,12-4h4c3-1,5-2,7-3,27-7,51-12,78-17,1,0,2-2,3-2,35-8,67-14,101-19,14-1,27-4,41-6,4,0,9-1,13,1-13.43,6.39-8.96-2.24,0,0-39,15-82,17-124,18-11,1-23,1-34-4-8-4-10-12-5-20,3-4,5-8,8-13,5-6,9-12,15-16,10-6,17-12,26-19,7-5,13-10,20-16,5-5,11-10,10-17,0-11-10-18-19-22-12-5-26,2-32,13,0,1,0,2,1,2,10,1,19-3,29-5,6-1,11-2,17,0,6,3,11,10,7,17-18,24-44,34-69,51-9,7-10,19-18,27-8,7-19,9-29,13-3,2-6,2-8,4-9,9-20,12-31,17-9,3-17,5-26,8-12,4-24,5-36,6-18,1-36,2-54,1-16-1-32-5-48-7-17-1-34-1-51-3-8-1-16-5-18-13,0-3,3-3,5-4,22-3,44,2,66,5h9c15,1,36,8,43-8,11-23-12-42-22-61-1-1,0-3-1-4-14-20-37-37-30-64,2-6,7-9,13-10,15-1,25,14,31,26,9,15,14,30,25,44,7,8,17,12,27,15,30,10,59,12,90,16,2,0,6,1,7,4,2,6-2,11-6,15-10,10-22,16-36,18-11,1-25-1-31-11-4-9,1-18,8-24,8-6,18-7,27-2,13,9,9,26-1,36-5,5-13,8-20,6-17-3-30-12-46-18-14-5-28-10-43-13-25-6-47-15-72-18-5-1-10-3-15-5-25-6-50-10-73-21-5-2-10-11-3-16,3-2,7-1,10-1,12,3,23,6,34,9,23,8,46,13,69,23,3,1,5,1,8,1,30,8,59,18,90,15,19-2,35-12,52-22,3-2,5-4,7-6,4-2,8-5,12-7,28-19,53-36,83-49,17-7,34-10,52-8,3,1,6,2,10,2,13,3,24,13,24,26-1,16-15,26-29,34-7,4-10,13-7,20,4,11,16,19,15,32-1,9-9,13-17,15-11,2-22-1-29-9-5-8-4-18,2-25,2-1,3-3,5-5,8-7,20-6,29-2,13,6,26,11,39,16,20,6,39,6,60,2,29-6,52-19,76-35,3-2,5-2,8-4,15-10,27-19,41-30,5-3,10-5,14-9,3-4,7-7,10-11,6-6,15-9,22-14,30-25,60-46,89-73,3-3,5-7,8-10,13-11,27-18,38-31,15-18,31-33,46-50,13-14,26-26,40-39,7-8,14-14,21-23,7-8,14-13,22-19,11-8,19-16,29-24,7.07-5.62,14.88-11.19,23.5-16.5,41.49-25.55,83.28-33.71,113.5-36.16,32.18,2.71,69.82,3.53,111.6,0,27.59-2.33,52.89-6.21,75.6-10.8,18.65-12.2,43.48-29.09,72-50.4,44.37-33.16,52.57-43.32,57.6-50.4,20.37-28.66,10.34-42.42,28.8-86.4,16.88-40.23,30.21-42.33,43.2-72,10.91-24.92,19.13-63.7,3.6-122.4"/>
  </g>
</svg>