<?xml version="1.0" encoding="UTF-8"?>
<svg id="_레이어_1" data-name=" 레이어 1" xmlns="http://www.w3.org/2000/svg" viewBox="0 0 784.94 1404.34">
  <defs>
    <style>
      .cls-1 {
        fill: none;
        stroke: #000;
        stroke-miterlimit: 10;
      }
    </style>
  </defs>
  <g id="one_line" data-name="one line">
    <path class="cls-1" d="M357.63,305.64h-.31c-9.06.21-60.08-2.55-93.69-44.01-16.21-20-21.08-40.03-22-44-1.97-8.53-10.44-45.25,11-72,8.7-10.85,18.57-15.38,33-22,35.6-16.33,68.09-14.49,75-14,19.3,1.38,51.69,3.68,78,29,5.38,5.18,25.67,24.7,29,55,5.35,48.67-36.73,91.66-77,106-4.04,1.44-16.42,5.57-33,6h0Z"/>
    <path class="cls-1" d="M385.63,311.64c-16.71,3.91-36.14,1.89-39.6,1.86-28.64-.25-49.61-8.47-55.4-10.86-13.12-5.43-33.91-14.03-50-35-1.47-1.92-24.43-32.75-20-72,5.99-53.13,58.62-90.5,105-101,41.66-9.43,103.97-2.99,137,44,1.77,2.52,36.06,48.87,15,97-21,48-79.52,73.08-92,76Z"/>
    <path class="cls-1" d="M387.13,311.14c-13.33-2-26.67-4-40-6"/>
    <path class="cls-1" d="M254.63,122.64c-37.55,21.58-45.43,33.26-45,40,.09,1.44.8,6.19-2,10-3.23,4.4-7.87,3.09-12,6-9,6.33-8.74,27.85,1,39,1.36,1.56,5.97,6.83,11,6,3.89-.64,6.2-4.62,7-6,7.33-12.64-10.26-45.04-14-66-8.49-47.62,44.33-93.36,52-100,8.51-7.37,63.03-52.92,133-35,36.88,9.45,60.84,33.45,66.65,39.51,5.82,6.07,15.86,17.65,24.35,34.49,16.3,32.32,16.33,62.69,16,69-1.37,26.44-11.55,49.67-3,55,3.47,2.16,8.97.74,12-2,6.2-5.6,2.95-19,1.4-25.38-.45-1.84-1.07-4.36-2.4-7.62-1.96-4.8-13.38-33.32-35-53-48.17-43.83-109.64-47.83-113-48,0,0-58.73-3.01-121,40-3.82,2.63-12.24,8.45-16,19-1.66,4.65-.5,4.87-2,11-.65,2.67-5.82,22.54-23,31-.32.16-2.35.8-5,2-2.17.98-3.69,1.83-4,2-4.16,2.25-18.68,5.88-31,0-3.13-1.5-4.91-3.03-6-5-1.79-3.24-1.2-6.71-1-8,1.75-11.26,2.92-43.77,0-55-.27-1.05-1.11-3.93,0-7,1.22-3.36,4.24-5.47,5-6,1.62-1.13,3.11-1.7,4-2,8.68-2.93,15.64,1.15,28,0,1.94-.18,4.61-.55,7,1,2.47,1.6,3.47,4.46,4,6,1.19,3.43,1.03,6.37,1,7-.96,18.4-1.83,35.06,0,48,.26,1.81.83,5.41,0,10-.42,2.31-1.7,9.45-7,13-3.16,2.12-6.22,1.94-11,2-1.05.01-17.82.26-23,2-3.34,1.12-9.76,5.83-13,50-1.89,25.81-2.93,36.87-5,59-.55,5.9-1.33,13.33-6,21-3.81,6.26-6.03,5.79-10,13-3.92,7.11-6.05,15.35-7,19-1.27,4.88-1.36,6.68-3,10-2.79,5.64-6.72,8.9-8,10-2.2,1.89-8.8,10.6-22,28-.75.98-13.82,18.35-25,39-3.91,7.23-6.13,12.16-26,67-10.67,29.43-13.5,37.6-17,50-5.73,20.31-8.6,30.46-9,40-.29,6.85-1.93,45.79,22,67,7.16,6.34,11.81,6.85,24,18,10.01,9.16,11.88,13.39,19,21,24.7,26.39,60.48,37.72,61,38,6.54,3.73,32.39,17.55,55,7,1.44-.67,15.51-7.24,15-15-.4-6-9.19-8.01-28-19-14.83-8.66-22.25-13-28-20-12.43-15.13-12.09-34.24-12-39,.09-5.22.67-37.25,25-51,10.38-5.86,22.29-4.86,27.85-4.56,9.06.49,15.3,2.73,23.15,5.56,10.49,3.78,18.59,6.87,21,14,.22.65,1.6,4.73,0,6-3.56,2.83-14.75-14.05-34-18-2.8-.58-14.61-2.83-26,3-18.4,9.42-21.43,32.64-22,37-2.83,21.67,7.66,42.12,21,53,6.51,5.3,6.63,2.57,19,11,12.31,8.38,15.28,13.19,31,24,12.75,8.76,17.08,9.92,21,9,2.58-.61,6.42-2.45,11-1,2.21.7,2.68,1.57,5,3,5.89,3.64,14.14,5.03,21,3,3.36-.99,3.03-1.81,7-3,5.95-1.78,10.73-1.15,13-1,10.65.68,19.68-5.97,36-18,4.98-3.67,8.17-6.54,9-11,.72-3.86-.31-9.04-3-10-5.45-1.95-15.87,14.11-16,14-.07-.06,2.79-5.06,9-11,5.64-5.4,8.88-6.62,10-11,.17-.66,1.07-4.43-1-8-1.84-3.17-5.71-5.66-9-5-3.43.69-5.3,4.61-6,6-7.16,14.27-26.73,32.92-43,41-9.27,4.6-16.83,5.45-17,5-.3-.83,23.85-6.85,45-26,7.56-6.85,16.98-17.4,17-30,0-6.16-2.24-8.35-3-9-4.61-3.91-14.26-1.4-19,4-2.41,2.75-2.14,4.65-4,9-2.85,6.68-7.03,10.52-13,16-9.62,8.83-19.05,13.26-25,16-16.3,7.5-29.98,9.09-30,9-.02-.1,16.61-2.16,36-12,0,0,11.56-5.87,25-19,5.83-5.7,9.65-10.58,9-16-.39-3.29-2.35-6.07-3-7-.5-.72-3.99-5.55-9-7-10.71-3.09-25.25,10.18-34,15-2.01,1.11-4.05,1.98-4.06,1.98-.37.16-1.63.68-3.16,1.2-3.67,1.23-6.98,1.73-7.78,1.83-7.52.89-20.28-6.43-20-7,.33-.66,16.3,12.44,33,8,10.22-2.72,16.16-10.79,16-11-.2-.26-11.66,10.29-30,17-3.62,1.32-7.37,2.45-12,3-2.2.26-19.22,2.29-23-5-.56-1.09-.36-1.47,0-9,.57-11.91.18-13.69-1-15-1.97-2.2-4.3-1.01-10-2-9.23-1.6-19.49-7.57-20-14-.15-1.89.5-4.27,2-5,1.86-.9,4.34,1.08,10,5,2.97,2.05,6.07,3.9,9,6,1,.71,16.64,11.56,32,7,1.64-.49,12.99-3.86,16-13,4.1-12.45-10.28-26.41-15-31-14.88-14.45-35.04-20.91-35-21,.03-.05,6.7,4.4,11,2,1.73-.97,3.29-3.15,3-5-.87-5.65-18.92-7.76-29-8-7.57-.18-23.37.38-43,9-13.3,5.84-32.14,14.11-43,32-17.72,29.18-3.1,65.61-9,67-3.4.8-10.01-10.91-13-22-7.04-26.12,3.39-58.53,25-72,11.43-7.12,27.77-10.06,33-11,10.08-1.81,16.72-1.64,27-6,8.22-3.49,15.02-6.38,18-13,4.92-10.95-3.64-25.4-12-33-5.83-5.3-12.78-8.36-26-11-32.95-6.58-56.85-.99-57-2-.17-1.17,30.94-12.81,63-3,9.15,2.8,21.67,6.63,30,18,4.99,6.81,5.31,12,8,12,5.95,0,15.86-25.32,9-47-2.97-9.4-6.62-10.29-8-19-2.24-14.14,5.6-23.04,9-33,11.79-34.6-28.5-86.53-43-83-3.84.93-7.68,6.2-8,11-.33,5.02,3.22,9.08,5,11,16.1,17.36,59.23,44.85,74,67,1.86,2.79,5.39,8.19,7,16,1.97,9.56-.99,12.81,0,20,2.07,15.09,19.06,29.77,32,28,6.81-.93,6.41-5.59,15-8,11.18-3.13,25.85.84,33,10,5.05,6.47,2.44,10.51,8,15,5.4,4.36,9.29,1.72,19,6,5.36,2.36,11.71,5.16,14,11,3.15,8.04-2.37,19.46-10,25-7.07,5.13-13.62,3.54-16,9-1.84,4.22,1.29,6.99-1,12-2.21,4.83-6.05,4.26-8,8-4.19,8.02,8.75,19.7,6,23-2.11,2.53-13.09-.31-21-8-11.11-10.81-4.81-20.17-14-38-9.55-18.54-21.92-19.21-24-35-1.03-7.87,2.14-6.98,2-19-.08-7.04-.3-26.98-13-38-5.57-4.83-9.56-4.5-11-9-2.55-7.97,6.51-19.82,12-19,1.53.23,2.46,1.4,9,12,2.4,1.57,5.39,3.1,7,2,2.08-1.42-.41-5.63,1-11,1.5-5.73,5.46-5.22,11-13,5.02-7.06,3.27-9.58,8-14,4.36-4.08,9.58-5.41,12-6,8.38-2.05,11.52.98,17-2,1.03-.56,5.95-3.23,7-8,1.77-8.05-9.46-12.9-8-22,.75-4.67,4.22-6.63,3-9-1.63-3.16-9.15-2.23-11-2-1.18.15-18.79,2.58-22,15-.77,3-1.07,7.99,1,9,3.42,1.67,8.08-10.07,21-15,8.3-3.17,19.74-3.41,24,2,1.81,2.3,1.22,4.22,3,5,3.82,1.69,7.51-6.79,18-11,7.3-2.93,11.52-1.23,14-5,1.73-2.64,1.98-7,0-10-3.43-5.19-11.2-2.76-28-6-6.39-1.23-9.45-2.39-12-3-18.51-4.42-46.29,11.51-64,27-32.46,28.38-41.84,64.64-44,74-3.23,13.99-8.29,45.63,5,81,23.98,63.84,86.94,84.44,92,86,54.17,16.73,122.97,1.51,160-51,56.16-79.62-9.02-173.42-23-189-3.83-4.27-15.74-17.54-33-19-.84-.07-15.26-1.16-18,5-2.73,6.15,8.82,13.55,6,23-1.46,4.9-5.9,7.38-7,8-6.37,3.56-15.52,2.55-17-1-1.05-2.51,1.45-7,5-8,3.65-1.03,6.94,2.02,8,3,5.06,4.69,6.68,13.89,3,18-3.04,3.4-7.53.91-10,4-3.89,4.85,1.27,18.4,7,19,6.61.69,8.48-16.41,19-18,7.5-1.13,9.65,7.1,24,11,10.7,2.91,13.25-.65,19,3,6.47,4.11,8.45,11.93,12,26,3.24,12.84,2.75,19.7,9,25,3.52,2.98,5.4,2.27,7,5,3.52,5.99-4,12.06-7,26-3.01,13.99,2.64,16.88-2,26-3.39,6.67-6.69,5.67-14,16-5.24,7.41-4.28,8.96-9,15-2.44,3.12-11.73,14.99-18,13-6.18-1.96-7.96-16.9-6-28,1.71-9.69,5.18-10.33,6-19,.74-7.84-.82-20.82-9-26-5.31-3.37-8.28-.19-23-2-10.16-1.25-15.74-1.94-20-6-6.68-6.38-5.81-17-5-27,.93-11.41,1.93-23.73,12-33,6.5-5.99,18.31-12.11,28-9,2.22.71,2.28,1.25,13,6,6.71,2.97,8.63,3.62,11,4,6.5,1.04,8.34-1.27,13-1,12.23.7,21.29,17.78,23,21,5.47,10.31,4.47,16.52,10,19,4.23,1.9,10.19.66,13-2,10.01-9.47-5.58-50.65-30-79-48.29-56.06-125.47-55.35-138-51-.4.14-2.33.84-5,1-12.12.75-25.64-10.33-26-18-.03-.66,0-2.15-1-3-1.7-1.44-4.87.22-8,1-2.45.61-4.48.57-13-1-17.88-3.29-26.83-4.94-36-8-16.47-5.5-24.7-8.24-32-15-2.84-2.62-11.73-11.08-15-25-3.74-15.9.42-36.54,12-42,3.44-1.62,9.52-2.84,13,0,2.82,2.3,2.91,6.43,3,8,.95,16.36,18.81,33.89,23,38,7.86,7.71,16.57,11.14,34,18,8.67,3.41,23.94,9.33,45,13,36.75,6.41,65.76,1.56,86-2,25.97-4.57,43.08-7.79,61-21,8.08-5.95,24.43-18.36,26-37,.97-11.54-3.78-24.89-8-25-3.33-.08-5.96,8.09-7,11-10.5,29.28-48.75,49.61-57,54-48.06,25.55-103.14,5.82-111,3-54.22-19.43-80-44-80-44-6.12-5.83-15.34-15.57-21-13-6.42,2.92-6.12,20.71-1,34,4.55,11.81,12.53,19.08,16,22,27.05,22.75,75.95,29.65,103,33,53.35,6.6,80.64,9.8,111,5,0,0,54.08-8.56,71-35,2.57-4.02,8.56-13.38,5-20-1.5-2.79-4.82-5.31-8-5-4.61.45-7.29,6.71-9,10-7.36,14.2-21.6,21.6-32,27-3.67,1.91-15.78,4.27-40,9-17.23,3.36-25.85,5.05-30,5-8.3-.09-17.57-1.46-19,2-.72,1.74.9,3.87,1,4,3.18,4.07,10.75,1.75,24,1,5.32-.3,10.67.08,16,0,48.33-.72,61.45-.16,80-6,11.08-3.49,16.23-6.78,20-10,10.28-8.78,18.86-24.28,14-33-1.68-3.02-4-3.47-8-6-11.5-7.26-16.43-18.71-20-27-4.29-9.95-4.33-17.72-3-46,1.87-39.93,2.4-33.83,2.46-45.27.21-39.25.31-58.88-2.46-67.73-1-3.2-3.57-10.7,0-15,2.53-3.04,6.48-2.5,16-3,19.61-1.02,23.47-4.37,28-1,4.54,3.38,4.63,9.7,5,19,1.83,46.09,6,52.16,0,57-9.91,8-27.74-3.32-36,7-.59.74-2.91,3.63-2,6,2.22,5.78,23.08,6.95,34,0,22.83-14.52,23.88-78.22-6-104-20.63-17.8-38.09-2.05-75-23-23.81-13.51-22.9-23.67-49-38-8.2-4.5-30.66-16.53-61-18-50.74-2.47-95.01,25.96-105,38-1.43,1.73-6.98,8.93-17,14-4.43,2.25-8.07,3.23-11,4-20.68,5.46-29.75,6.82-37,9-7.83,2.35-18.47,7.15-30,18"/>
    <path class="cls-1" d="M531.63,303.64c38.92,8.67,50.23,20.97,53,31,1.34,4.87.3,7.84,3,15,4.31,11.43,10.7,13.72,23,28,3.77,4.38,10.71,12.52,17,24,4.48,8.19,4.22,10,11,27,10.58,26.5,14.49,30.26,12,35-3.86,7.35-15.5,2.63-39,7-13.78,2.56-28.52,8.71-58,21-17.75,7.4-26.1,11.64-30,8-5.32-4.96,1.87-20.6,3-23,16.88-35.76,64.71-45.04,80-48,16.62-3.21,37.56-7.27,47,4,5.05,6.03,8.72,18.72,4,25-1.71,2.27-3.49,2.35-5,5-3.34,5.88.6,13.95,2,17,7.67,16.65-.85,14.44,14,61,3.61,11.32,7.44,21.6,5,23-1.95,1.12-6.48-4.25-16-13-9.67-8.88-19.06-16.26-23-19-26.3-18.3-64.93-7.66-82,4-6.49,4.43-6.16,6.48-6,7,1.39,4.63,24.33,4.51,31,3,.24-.05,2.84-.65,6,0,1.46.3,3.17.68,4,2,1.11,1.78-.5,3.47,0,5,1.06,3.27,10.45,1.98,21,3,7.81.75,19.62,1.89,23,9,1,2.11,1.82,5.9,0,8-4.18,4.83-16.28-6.3-37-9-16.23-2.12-23.62,2.77-48-1-6.97-1.08-11.09-2.21-12-5-1.96-6.01,12.16-16.14,21-21,23.58-12.98,48.11-9.73,53-9,9.04,1.35,49.28,8.76,59,37,1.05,3.05,3.55,11.6-4,38-14.28,49.92-39.54,76.38-64,102-4.76,4.98-15.19,15.48-28,15-.84-.03-8.9-.41-10-4-1.22-4,6.9-9.62,10-12,17.07-13.09,29.98-41.18,29-64-.83-19.31-11.85-40.45-31-52-20.73-12.51-44.58-9.9-59-3-2.72,1.3-9.32,4.54-9,8,.15,1.59,2.09,2.54,2.87,2.93,8.93,4.42,24.66,8.82,28.13,10.07,14.54,5.27,20.27,30.34,20,46-.41,23.92-15.66,47.49-35,56-11.28,4.96-23.71,4.69-25,11-.84,4.1,3.5,8.7,7,11,15.69,10.3,43.09-6.8,48-10,6.74-4.4,33.71-21.98,37-54,4.07-39.61-30.56-77.04-54-76-7.12.31-11.22,4.09-20.64,7.39-1.17.41-3.78,1.27-7.29,2.11-4.03.96-7.06,1.36-8.07,1.5-3.82.53-9.95,1.79-20,5,0,0-7.3,4.65-15,15-1.21,1.63-2,3-2,3-1.11,1.94-1.28,2.78-2,4-1.25,2.11-2.9,3.2-4,4-5.3,3.85-10.64,10.35-12,12-4.27,5.2-6.41,7.79-7,12-.09.62-.92,7.22,3,12,1.5,1.83,5.08,5.08,20,5,0,0,24.55-.12,47-15,1.38-.91,3.43-2.49,4-5,.31-1.38.39-3.99-1-5-2.12-1.53-5.81,1.99-20,11-4.84,3.07-6.34,3.89-7,6-1.38,4.44,3.34,7.01,4,14,.46,4.85-1.12,10.88-5,14-3.01,2.42-7.37,3.06-17,1-22.45-4.8-46.16-18.39-55-26-.51-.44-2.26-1.97-5-3-.69-.26-8.04-2.9-14,1-2.91,1.91-5.48,5.37-6,9-.56,3.85.99,9.18,40,37,1.76,1.25,9.53,6.7,19,9,2.42.59,4.46.87,4.46.87,8.45,1.18,14.34-.59,14.54.13.16.58-3.49,2.28-6,3-23.89,6.85-69.18-39.4-75-47-.45-.59-2.08-2.8-5-4-4.19-1.73-8.31-.26-9,0-3.2,1.2-6.02,3.75-7,6-4.35,9.95,20.1,29.78,29,37,16.12,13.08,27.43,17.65,31,19,5.85,2.21,17.26,6.51,24,5,.53-.12,2.66-.64,3,0,.44.84-2.33,3.47-5,5-3.35,1.91-6.25,1.93-14,2-13.11.11-13.18.13-14,0-4.86-.78-8.8-2.47-15-6-23.15-13.18-28.01-23.69-40-31-.56-.34-2.61-1.57-4-4-2.24-3.89-2.2-9.83,1-13,.4-.4,1.86-1.85,4-2,2.26-.16,4.05,1.22,5,2,5.51,4.55,10.06,11.67,14,16,.75.83.83.83,14,10,14.39,10.01,14.41,10.09,16,11,6.09,3.49,12.84,7.37,22,9,10.79,1.92,18.68-.39,19,1,.3,1.28-6.18,4.15-12,6-8.82,2.8-35.16,11.15-59-4-17.94-11.4-24.95-28.03-24-30,.83-1.71,2-2,2-2,0,0,.47-.11,1,0,4.68.99,22,18,22,18,.94.94,5.9,5.49,13,10,0,0,7.97,5.06,16,8,14.05,5.14,37.79,1.3,58-10,11.5-6.43,23.34-20.96,47-50,14.76-18.12,19.32-25.52,21-36,.16-1.01,3.82-25.52-8-36-2.61-2.31-10.31-7.79-15-11-2.5-1.71-4.59-3.09-6-4"/>
    <path class="cls-1" d="M670.29,878.25c11.38-10.45,20.38-20.45,29.38-33.45,7-10,10-21,14-32,5-19,9-38,10-58,2-44-9-85-18-130,0-2-2-4-3-6-2-6-2-12-4-18-10-35-21-66-29-102,0-4-1-7,3-10-.52,1.01-1.47,1.05-2,0,.61.6,3.62,3.05,3.42,3.93-.39,1.69-3.32-2.81-3.42-3.93,8.42,8.44,14.11,19.1,22.13,27.88,3.87,4.12,7.87,8.12,11.87,12.12,1,1,3,1,4,2,12,11,30,21,46,15,27-11,32-42,29-68,0-2-2-5-2-7-2-22-7-43-12-65-4-19-10-36-18-53-9-21-16-42-31-60-2-2-2-6-4-8s-3-4-5-7l-9-9c-3-1-5-3-7-5-16-12-35-15-54-11-11,3-20,8-30,14-14,9-25,21-40,29-10-3-14-14-20-22-6-10-8-22-10-33-1-19-1-39,4.95-57.16"/>
  </g>
</svg>