<svg width="96" height="37" viewBox="0 0 96 37" fill="none" xmlns="http://www.w3.org/2000/svg">
<g filter="url(#filter0_d_6_33)">
<path d="M4.86 9.44H31.23V11.72H4.86V9.44ZM19.47 10.34C21.42 17.6 25.5 23.66 31.74 26.24C31.17 26.75 30.42 27.71 30.03 28.34C23.55 25.28 19.47 18.95 17.22 10.88L19.47 10.34ZM16.83 0.829999H19.26C19.14 8.69 19.08 22.37 5.97 28.37C5.61 27.77 4.89 26.96 4.26 26.51C17.01 20.96 16.77 8.03 16.83 0.829999ZM46.92 2.57H61.26V4.61H46.92V2.57ZM46.02 2.57H48.15V11.21C48.15 16.28 47.61 23.57 43.92 28.4C43.56 27.98 42.69 27.29 42.18 27.02C45.69 22.46 46.02 15.98 46.02 11.21V2.57ZM47.01 10.55H58.86V12.59H47.01V10.55ZM58.32 10.55H58.74L59.16 10.46L60.54 10.88C58.89 20.42 54.18 25.76 47.91 28.43C47.64 27.89 47.04 27.02 46.56 26.57C52.32 24.41 56.91 19.22 58.32 10.97V10.55ZM50.13 11.9C52.02 18.74 55.95 24.2 62.04 26.51C61.53 26.96 60.84 27.83 60.51 28.4C54.27 25.67 50.31 19.91 48.24 12.38L50.13 11.9ZM35.4 2.12H42.48V4.16H37.44V28.43H35.4V2.12ZM41.79 2.12H42.18L42.54 2.03L43.98 2.9C43.11 5.36 42 8.45 40.98 10.85C43.2 13.34 43.68 15.44 43.68 17.3C43.68 18.92 43.35 20.18 42.51 20.78C42.09 21.05 41.55 21.23 40.95 21.32C40.35 21.38 39.6 21.38 38.91 21.35C38.88 20.81 38.7 19.94 38.37 19.37C39.06 19.43 39.63 19.46 40.11 19.4C40.47 19.4 40.8 19.31 41.04 19.13C41.52 18.8 41.67 17.99 41.67 17.09C41.67 15.47 41.13 13.43 38.97 11.09C40.05 8.36 41.16 4.79 41.79 2.72V2.12ZM76.71 0.679999H79.08V6.29H76.71V0.679999ZM76.74 7.01H79.05V28.49H76.74V7.01ZM64.5 4.97H91.53V7.16H64.5V4.97ZM67.59 11.27H87.3V13.46H69.84V24.68H67.59V11.27ZM86.43 11.27H88.74V21.83C88.74 23.12 88.44 23.81 87.45 24.2C86.4 24.56 84.72 24.59 82.14 24.59C82.05 23.9 81.69 23 81.36 22.37C83.4 22.43 85.23 22.43 85.74 22.4C86.28 22.37 86.43 22.25 86.43 21.83V11.27Z" fill="black"/>
</g>
<defs>
<filter id="filter0_d_6_33" x="0.26001" y="0.679993" width="95.27" height="35.81" filterUnits="userSpaceOnUse" color-interpolation-filters="sRGB">
<feFlood flood-opacity="0" result="BackgroundImageFix"/>
<feColorMatrix in="SourceAlpha" type="matrix" values="0 0 0 0 0 0 0 0 0 0 0 0 0 0 0 0 0 0 127 0" result="hardAlpha"/>
<feOffset dy="4"/>
<feGaussianBlur stdDeviation="2"/>
<feComposite in2="hardAlpha" operator="out"/>
<feColorMatrix type="matrix" values="0 0 0 0 0 0 0 0 0 0 0 0 0 0 0 0 0 0 0.25 0"/>
<feBlend mode="normal" in2="BackgroundImageFix" result="effect1_dropShadow_6_33"/>
<feBlend mode="normal" in="SourceGraphic" in2="effect1_dropShadow_6_33" result="shape"/>
</filter>
</defs>
</svg>
