<?xml version="1.0" encoding="UTF-8"?>
<svg id="_레이어_2" data-name="레이어 2" xmlns="http://www.w3.org/2000/svg" viewBox="0 0 1616.02 882.83">
  <defs>
    <style>
      .cls-1 {
        fill: none;
        stroke: #fff;
        stroke-miterlimit: 10;
      }
    </style>
  </defs>
  <g id="_레이어_2-2" data-name="레이어 2">
    <path class="cls-1" d="M1616.02,46.5c-16.12.06-31.12,3.06-46.12,9.06-15,7-26,18-36,31-9,13-15,25-23,38-5,6-9,12-15,17-22,19-50,16-76,13-4-1-7-3-9-6-3-6-4-15,0-21,18,1,36,2,54.12,2.94-2.54-.88-5.2-2.05-7.86-2.48,2.18,1.31,5.31,2.24,7.86,2.48-17.33-6.01-34.33-13-52-18,2.48-.23,5.04-.63,7.53-.56-2.28.56-5.19.9-7.53.56,19.37-1.99,38.76-3.93,58-7-19.33-1.67-38.67-3.33-58-5,17.67-7,35.33-14,53-21-18.67,2-37.33,4-56,6,15.33-10.33,30.67-20.67,46-31-18,6.67-36,13.33-54,20,12-13.33,24-26.67,36-40-15,10.33-30,20.67-45,31,7-15.67,14-31.33,21-47-10.92,14.78-22.28,29.24-34.07,43.34.44-.44.85-.91,1.26-1.38-.39.47-.87.9-1.26,1.38,5.07-17.72,4.99-36.4,9.07-54.32-.67,1.33-1.35,2.65-2.02,3.97.67-1.33,1.34-2.65,2.02-3.97-7.09,15.95-14.08,31.95-20.99,47.98-2.33-17.33-4.67-34.67-7-52-2.67,17.33-5.33,34.67-8,52-6.67-15.67-13.33-31.33-20-47,2.67,16.67,5.33,33.33,8,50-11.67-13.33-23.33-26.67-35-40,7.33,15.33,14.67,30.67,22,46-14.67-10.33-29.33-20.67-44-31,11.67,13.33,23.33,26.67,35,40-18-6.33-36-12.67-54-19,15.64,10.37,31.27,20.77,47,31-19.67-2-39.33-4-59-6,20.67,7.67,41.33,15.33,62,23-.13-8.94,1.87-16.94,6.87-24.94,3-4,8-7,13-10,13-7,28-7,42-3,8,3,15,7,22,13,10,10,11,24,8,37-3,10-5,22,3,30,0,6,5,10,7,16,1,5,1,10-2,15-8,10-4,21-6,32-1,5-6,9-11,12-8,4-17,3-26,4-3,15-18,23-33,20-5-2-9-6-15-5-15,15-41,16-57,1-1-1-3-2-5-2-12,4-25,5-36,0-8-4-15-11-18-20-1-5,1-11-1-16,0-1-1-2-2-2-16-3-25-19-23-34,2-10,5-20,14-27,12-8,28-15,40-4,1,0,3,0,3-1,5-16,23-15,36-13,1,0,2,0,3-1,5-4,8-9,13-12,6-3,13-4,20-3,9,2,17,5,24,12,2,2,4,3,6,3,6,1,11-3,16-3,8,0,13,7,18,14,1,1,3,2,5,2,15-3,28,8,30,22,2,6,2,13,0,19-3,7-10,8-16,11-2,1-4,3-4,4,0,9-3,18-9,25-13,13-30,18-47,18-35,2-69-4-104,5-9,3-18,5-26,8-16,7-30,15-46,24-13,9-24,18-34,31-10,14-19,26-28,41-3,4-5,7-8,11-27,47-50,92-75,139-5,8-9,16-15,24-2,3-2,6-4,9-23,36-44,70-76,98-2,2-5,3-7,5-11,7-22,13-35,10-12-4-22-12-34-15-50-16-103-17-151,2-57,24-113,45-171,65-25,9-49,17-73,27-22,10-40,23-61,35-6,3-11,7-18,9l-3,3c-35,20-74,38-113,24-72-36-145-77-228-84-3,0-5-2-8-2h-6c-3-1-5-2-8-4-2-2-2-5,1-7,28-18,60-21,92-16,66,11,120,45,177,74,22,7,45-4,62-18,33-29,66-54,106-70,32-12,66-19,101-18,8,1,16,2,24,4,14,3,25,9,37,15,47,24,90,49,136,79,6,3,12,7,17,12,4,4,5,11,2,16-2,3-6,3-8,4-35,12-70,16-106,18-107,8-211,16-318,27-28,2-56,6-84,9-4,1-9,2-13,3h-5c-10,3-20,4-28,11-1,1-2,3-1,5,5,10,16,12,25,15,23,10,46,15,71,19,17,2,33,3,48.67,3.77"/>
  </g>
</svg>