<?xml version="1.0" encoding="UTF-8"?>
<svg id="_레이어_2" data-name=" 레이어 2" xmlns="http://www.w3.org/2000/svg" viewBox="0 0 891.54 689.68">
  <defs>
    <style>
      .cls-1 {
        fill: none;
        stroke: #000;
        stroke-miterlimit: 10;
      }
    </style>
  </defs>
  <g id="_레이어_2-2" data-name=" 레이어 2-2">
    <path class="cls-1" d="M743.93.47c-63.95,25.21-128.95,47.21-193.95,70.21-6,2-11,5-17,7-13,7-26,13-39,21l-3,3c-11,7-21,11-32,19-3,2-6,2-9,4-12,8-24,14-37,20l-27,9c-11,2-21,3-32,1-22-5-40-15-59-25-33-19-66-35-102-46-17-5-34-10-52-13s-35-4-52-8c-5-2-6-7-2-10,7-5,15-8,23-9,1,0,3-2,4-2,17-5,34-6,52-5,32,2,62,13,92,25,2,1,3,0,5,1,12,5,23,11,35,18,6,3,12,5,17,9,4,3,9,4,13,6,11,8,21,14,34,17,7,1,15,0,22-2,15-4,28-12,40-23,1-1,3-1,4-2l8-8c1-1,2,0,3-1l8-8c1-1,2,0,3-1,20-19,44-29,68-42,3-1,7-2,11-3,25-12,53-15,80-18,20-2,39,1,57,9,58,26,109,58,164,95,7,4,16,10,13,20-11,11-25,13-40,16-13,2-25,4-37,5-54,4-107,9-161,12-22,2-44,4-67,6l-24,3h-9c-39,4-76,7-115,10-7,1-13,2-20,3-5,0-10,1-15,1-22,3-43,6-65,12-4,2-10,3-12,7-2,8,7,12,13,15,1,1,3,0,4,1,43,21,90,22,136,27,7,1,16,1,19,8-8,11-19,18-31,26-3,1-5,2-8,3-10,2-19,2-28,6-10,5-20,20-10,29,4,5,14,5,17-3,2-7-4-13-10-14-4,0-9,2-10,7-2,14-3,29,2,42,2,3,6,5,9,7,25,8,50,13,76,15,11,1,22,6,33,7,9,0,17-4,20-13,5-22,12-52,38-52,12-1,23,8,29,19,7,13,8,27,3,40-6,14-18,25-34,23-7-1-13-7-16-13-1-2-2-5-3-7-4-14-1-29,8-41,5-5,10-8,17-10,9-2,18,3,22,12,4,11,5,23,1,34-1,2-2,4-3,7-7,14-23,23-39,21-1,0-3-2-4-2-8-1-16-6-19-13-2-6,2-12,7-15,39-21,82-19,124-22,8,0,18,1,24-6,2-12,0-25,6-37,1-1,2-3,3-5,7-9,20-13,30-6,14,10,15,27,9,41-4,9-14,17-25,15-3-1-7-1-9-4-7-11-8-24-4-36,4-11,17-15,28-11,10,5,12,16,10,26s-9,18-18,23c-7,3-16,4-24,2-2-1-4-2-4-5,1-2,3-4,5-6,15-10,31-14,47-21,8-9,6-21,2-31-6-11-17-16-28-20h-5c-3-1-5-2-8-2-14-1-30,1-42-9-1-1-3,0-4-1-21-13-42-20-66-24-21-3-40-3-61,2-16,3-33,5-46,15,1,1,2,2,3,2,18,2,37-1,54,6,9,12-5,25-15,30-2,1-5,2-7,3-23,6-48,5-70-3-1,0-3-3-2-6,8-14,23-21,37-27,15-6,33-8,47,2,7,6,7,15,6,24-1,2-2,5-3,7-7,11-15,20-18,32-2,6,0,13-6,17-10,6-22,4-32,0-5-1-6-9-2-13,10-7,22-7,33-3,5,6,1,14-1,20-9,18-26,28-44,34-14,5-32,11-45,1-2-5-3-12-9-14-20-6-40,1-60,5-1,0-3,2-4,2-45,12-87,28-129,47-2,1-3,0-5,1-37,18-71,35-106,59-31,21-56,43-82.66,65.48"/>
    <path class="cls-1" d="M521.95,202.34c7.49.21,18.58.53,32,1,98.43,3.43,152.63,8.57,190,13,1.85.22,46.92,5.83,101,25,10.92,3.87,28.98,9.37,39,26,0,0,8.02,13.31,7,31-2.63,45.58-87.91,84.99-99,90-132.9,60.01-264.42,113.55-287,123-63.75,26.69-153.48,76.5-248,178"/>
  </g>
</svg>